<svg xmlns="http://www.w3.org/2000/svg" xmlns:xlink="http://www.w3.org/1999/xlink" width="75" zoomAndPan="magnify" viewBox="0 0 56.25 56.249997" height="75" preserveAspectRatio="xMidYMid meet" version="1.0"><defs><clipPath id="ec3f38db8f"><path d="M 0 0 L 55.511719 0 L 55.511719 55.511719 L 0 55.511719 Z M 0 0 " clip-rule="nonzero"/></clipPath></defs><g clip-path="url(#ec3f38db8f)"><path fill="#c4c4c4" d="M 27.753906 0 C 26.847656 0 25.9375 0.0429688 25.035156 0.132812 C 24.128906 0.222656 23.230469 0.355469 22.339844 0.535156 C 21.449219 0.710938 20.566406 0.929688 19.699219 1.195312 C 18.828125 1.460938 17.972656 1.765625 17.132812 2.113281 C 16.292969 2.460938 15.472656 2.847656 14.671875 3.277344 C 13.871094 3.707031 13.089844 4.171875 12.335938 4.675781 C 11.578125 5.183594 10.851562 5.722656 10.148438 6.300781 C 9.445312 6.875 8.773438 7.488281 8.128906 8.128906 C 7.488281 8.773438 6.875 9.445312 6.300781 10.148438 C 5.722656 10.851562 5.183594 11.578125 4.675781 12.335938 C 4.171875 13.089844 3.707031 13.871094 3.277344 14.671875 C 2.847656 15.472656 2.460938 16.292969 2.113281 17.132812 C 1.765625 17.972656 1.460938 18.828125 1.195312 19.699219 C 0.929688 20.566406 0.710938 21.449219 0.535156 22.339844 C 0.355469 23.230469 0.222656 24.128906 0.132812 25.035156 C 0.0429688 25.9375 0 26.847656 0 27.753906 C 0 28.664062 0.0429688 29.570312 0.132812 30.476562 C 0.222656 31.378906 0.355469 32.277344 0.535156 33.167969 C 0.710938 34.0625 0.929688 34.941406 1.195312 35.8125 C 1.460938 36.679688 1.765625 37.535156 2.113281 38.375 C 2.460938 39.214844 2.847656 40.035156 3.277344 40.839844 C 3.707031 41.640625 4.171875 42.417969 4.675781 43.175781 C 5.183594 43.929688 5.722656 44.660156 6.300781 45.363281 C 6.875 46.066406 7.488281 46.738281 8.128906 47.378906 C 8.773438 48.023438 9.445312 48.632812 10.148438 49.210938 C 10.851562 49.785156 11.578125 50.328125 12.335938 50.832031 C 13.089844 51.335938 13.871094 51.804688 14.671875 52.234375 C 15.472656 52.660156 16.292969 53.050781 17.132812 53.398438 C 17.972656 53.746094 18.828125 54.050781 19.699219 54.316406 C 20.566406 54.578125 21.449219 54.800781 22.339844 54.976562 C 23.230469 55.152344 24.128906 55.289062 25.035156 55.375 C 25.9375 55.464844 26.847656 55.511719 27.753906 55.511719 C 28.664062 55.511719 29.570312 55.464844 30.476562 55.375 C 31.378906 55.289062 32.277344 55.152344 33.167969 54.976562 C 34.0625 54.800781 34.941406 54.578125 35.8125 54.316406 C 36.679688 54.050781 37.535156 53.746094 38.375 53.398438 C 39.214844 53.050781 40.035156 52.660156 40.839844 52.234375 C 41.640625 51.804688 42.417969 51.335938 43.175781 50.832031 C 43.929688 50.328125 44.660156 49.785156 45.363281 49.210938 C 46.066406 48.632812 46.738281 48.023438 47.378906 47.378906 C 48.023438 46.738281 48.632812 46.066406 49.210938 45.363281 C 49.785156 44.660156 50.328125 43.929688 50.832031 43.175781 C 51.335938 42.417969 51.804688 41.640625 52.234375 40.839844 C 52.660156 40.035156 53.050781 39.214844 53.398438 38.375 C 53.746094 37.535156 54.050781 36.679688 54.316406 35.8125 C 54.578125 34.941406 54.800781 34.0625 54.976562 33.167969 C 55.152344 32.277344 55.289062 31.378906 55.375 30.476562 C 55.464844 29.570312 55.511719 28.664062 55.511719 27.753906 C 55.507812 26.847656 55.464844 25.9375 55.375 25.035156 C 55.285156 24.128906 55.152344 23.230469 54.976562 22.339844 C 54.796875 21.449219 54.578125 20.566406 54.3125 19.699219 C 54.050781 18.828125 53.742188 17.972656 53.394531 17.132812 C 53.046875 16.292969 52.660156 15.472656 52.230469 14.671875 C 51.804688 13.871094 51.335938 13.089844 50.832031 12.335938 C 50.328125 11.582031 49.785156 10.851562 49.207031 10.148438 C 48.632812 9.445312 48.023438 8.773438 47.378906 8.128906 C 46.738281 7.488281 46.0625 6.878906 45.363281 6.300781 C 44.660156 5.722656 43.929688 5.183594 43.175781 4.679688 C 42.417969 4.171875 41.640625 3.707031 40.835938 3.277344 C 40.035156 2.851562 39.214844 2.460938 38.375 2.113281 C 37.535156 1.765625 36.679688 1.460938 35.8125 1.195312 C 34.941406 0.933594 34.0625 0.710938 33.167969 0.535156 C 32.277344 0.355469 31.378906 0.222656 30.476562 0.132812 C 29.570312 0.0429688 28.664062 0 27.753906 0 Z M 27.753906 10.40625 C 28.082031 10.40625 28.410156 10.425781 28.738281 10.464844 C 29.0625 10.503906 29.386719 10.558594 29.707031 10.632812 C 30.027344 10.710938 30.34375 10.800781 30.652344 10.914062 C 30.960938 11.027344 31.261719 11.15625 31.554688 11.300781 C 31.851562 11.449219 32.136719 11.609375 32.410156 11.789062 C 32.683594 11.96875 32.949219 12.164062 33.203125 12.375 C 33.453125 12.585938 33.695312 12.808594 33.921875 13.046875 C 34.148438 13.285156 34.359375 13.535156 34.558594 13.796875 C 34.757812 14.0625 34.9375 14.332031 35.105469 14.617188 C 35.269531 14.902344 35.417969 15.191406 35.550781 15.492188 C 35.683594 15.792969 35.796875 16.101562 35.894531 16.417969 C 35.992188 16.730469 36.070312 17.050781 36.128906 17.371094 C 36.191406 17.695312 36.230469 18.019531 36.253906 18.347656 C 36.273438 18.675781 36.277344 19.003906 36.261719 19.332031 C 36.246094 19.660156 36.210938 19.988281 36.15625 20.3125 C 36.105469 20.636719 36.03125 20.957031 35.941406 21.273438 C 35.851562 21.589844 35.742188 21.898438 35.613281 22.199219 C 35.488281 22.503906 35.34375 22.800781 35.183594 23.085938 C 35.023438 23.371094 34.847656 23.648438 34.652344 23.914062 C 34.460938 24.179688 34.253906 24.433594 34.03125 24.675781 C 33.808594 24.917969 33.574219 25.148438 33.324219 25.363281 C 33.074219 25.578125 32.816406 25.777344 32.542969 25.960938 C 32.273438 26.148438 31.988281 26.316406 31.699219 26.46875 C 31.40625 26.621094 31.109375 26.753906 30.800781 26.871094 C 30.492188 26.988281 30.179688 27.089844 29.863281 27.171875 C 29.542969 27.25 29.222656 27.3125 28.898438 27.359375 C 28.570312 27.402344 28.242188 27.425781 27.914062 27.433594 C 27.585938 27.4375 27.257812 27.425781 26.929688 27.394531 C 26.605469 27.363281 26.28125 27.3125 25.960938 27.242188 C 25.636719 27.171875 25.320312 27.085938 25.011719 26.976562 C 24.699219 26.871094 24.394531 26.75 24.097656 26.605469 C 23.800781 26.464844 23.515625 26.308594 23.234375 26.132812 C 16.089844 21.605469 19.1875 10.496094 27.753906 10.40625 Z M 37.738281 45.101562 L 17.773438 45.101562 C 17.359375 45.101562 16.949219 45.058594 16.542969 44.980469 C 16.140625 44.898438 15.746094 44.777344 15.367188 44.617188 C 14.984375 44.460938 14.621094 44.265625 14.277344 44.035156 C 13.933594 43.808594 13.617188 43.546875 13.324219 43.253906 C 13.035156 42.960938 12.773438 42.644531 12.542969 42.300781 C 12.316406 41.957031 12.121094 41.59375 11.964844 41.210938 C 11.804688 40.832031 11.6875 40.4375 11.605469 40.03125 C 11.523438 39.628906 11.484375 39.21875 11.484375 38.804688 C 11.484375 33.472656 15.414062 28.863281 21.050781 26.792969 C 21.515625 27.183594 22.011719 27.535156 22.539062 27.839844 C 23.0625 28.148438 23.613281 28.40625 24.183594 28.613281 C 24.757812 28.824219 25.34375 28.980469 25.941406 29.089844 C 26.542969 29.195312 27.144531 29.246094 27.753906 29.246094 C 28.363281 29.246094 28.96875 29.195312 29.566406 29.089844 C 30.167969 28.980469 30.753906 28.824219 31.324219 28.613281 C 31.898438 28.40625 32.445312 28.148438 32.972656 27.839844 C 33.5 27.535156 33.996094 27.183594 34.460938 26.792969 C 40.097656 28.863281 44.027344 33.46875 44.027344 38.804688 C 44.027344 39.21875 43.984375 39.628906 43.90625 40.03125 C 43.824219 40.4375 43.703125 40.832031 43.546875 41.210938 C 43.390625 41.59375 43.195312 41.957031 42.964844 42.300781 C 42.738281 42.644531 42.476562 42.960938 42.183594 43.253906 C 41.890625 43.546875 41.574219 43.808594 41.230469 44.035156 C 40.886719 44.265625 40.527344 44.460938 40.144531 44.617188 C 39.761719 44.777344 39.371094 44.898438 38.964844 44.980469 C 38.558594 45.058594 38.152344 45.101562 37.738281 45.101562 Z M 37.738281 45.101562 " fill-opacity="1" fill-rule="nonzero"/></g></svg>